HIERARCHY
ROOT newVegas:Hips
{
	OFFSET 0.000000 96.479958 0.000000
	CHANNELS 6 Xposition Yposition Zposition Xrotation Yrotation Zrotation
	JOINT newVegas:Pelvis
	{
		OFFSET 0.000000 0.000000 0.000000
		CHANNELS 3 Xrotation Yrotation Zrotation
		JOINT newVegas:LeftUpLeg
		{
			OFFSET 18.735201 -5.666702 -4.541200
			CHANNELS 3 Xrotation Yrotation Zrotation
			JOINT newVegas:LeftLeg
			{
				OFFSET -0.021200 -31.938179 0.493100
				CHANNELS 3 Xrotation Yrotation Zrotation
				JOINT newVegas:LeftFoot
				{
					OFFSET 0.021200 -31.938179 -4.336299
					CHANNELS 3 Xrotation Yrotation Zrotation
					JOINT newVegas:LeftToeBase
					{
						OFFSET 0.943001 -26.722000 15.023500
						CHANNELS 3 Xrotation Yrotation Zrotation
						End Site
						{
							OFFSET 0.000000 30.670183 0.000000
						}
					}
				}
				JOINT newVegas:Left_PantLeg
				{
					OFFSET 0.663870 -9.044666 -1.108900
					CHANNELS 3 Xrotation Yrotation Zrotation
					End Site
					{
						OFFSET 1.415995 20.635357 0.000000
					}
				}
			}
		}
		JOINT newVegas:RightUpLeg
		{
			OFFSET -18.735201 -5.666702 -4.541200
			CHANNELS 3 Xrotation Yrotation Zrotation
			JOINT newVegas:RightLeg
			{
				OFFSET 0.018946 -31.938133 0.493100
				CHANNELS 3 Xrotation Yrotation Zrotation
				JOINT newVegas:RightFoot
				{
					OFFSET -0.018946 -31.938126 -4.336299
					CHANNELS 3 Xrotation Yrotation Zrotation
					JOINT newVegas:RightToeBase
					{
						OFFSET -0.943001 -26.722004 15.023500
						CHANNELS 3 Xrotation Yrotation Zrotation
						End Site
						{
							OFFSET 0.000000 30.670187 0.000000
						}
					}
				}
				JOINT newVegas:Right_PantLeg
				{
					OFFSET -0.661674 -9.044716 -1.108900
					CHANNELS 3 Xrotation Yrotation Zrotation
					End Site
					{
						OFFSET -1.415958 20.635269 0.000000
					}
				}
			}
		}
	}
	JOINT newVegas:Spine
	{
		OFFSET 0.000000 10.199997 -0.299500
		CHANNELS 3 Xrotation Yrotation Zrotation
		JOINT newVegas:Spine1
		{
			OFFSET 0.000000 11.900002 -1.516600
			CHANNELS 3 Xrotation Yrotation Zrotation
			JOINT newVegas:Spine2
			{
				OFFSET 0.000000 13.600006 -2.842500
				CHANNELS 3 Xrotation Yrotation Zrotation
				JOINT newVegas:Neck
				{
					OFFSET 0.000000 9.624100 -2.890100
					CHANNELS 3 Xrotation Yrotation Zrotation
					JOINT newVegas:Head
					{
						OFFSET 0.000000 14.068802 -1.351900
						CHANNELS 3 Xrotation Yrotation Zrotation
						JOINT newVegas:Hair_Back
						{
							OFFSET 0.000000 3.231903 -17.524799
							CHANNELS 3 Xrotation Yrotation Zrotation
							End Site
							{
								OFFSET 0.000000 19.849884 0.000000
							}
						}
						JOINT newVegas:Hair_Front
						{
							OFFSET 0.000000 31.260406 4.573800
							CHANNELS 3 Xrotation Yrotation Zrotation
							JOINT newVegas:Hair_Front1
							{
								OFFSET 0.000000 2.284103 11.993300
								CHANNELS 3 Xrotation Yrotation Zrotation
								JOINT newVegas:Hair_Front2
								{
									OFFSET 0.000000 2.284103 11.993300
									CHANNELS 3 Xrotation Yrotation Zrotation
									End Site
									{
										OFFSET 0.000000 12.208862 0.000000
									}
								}
							}
						}
						JOINT newVegas:Jowel
						{
							OFFSET 0.000000 -7.458206 6.864100
							CHANNELS 3 Xrotation Yrotation Zrotation
							End Site
							{
								OFFSET 0.000000 19.849884 0.000000
							}
						}
					}
				}
				JOINT newVegas:LeftShoulder
				{
					OFFSET 15.263000 10.923401 -0.547700
					CHANNELS 3 Xrotation Yrotation Zrotation
					JOINT newVegas:LeftArm
					{
						OFFSET 25.438599 -2.830597 -13.032500
						CHANNELS 3 Xrotation Yrotation Zrotation
						JOINT newVegas:LeftForeArm
						{
							OFFSET 29.960503 0.000000 0.000000
							CHANNELS 3 Xrotation Yrotation Zrotation
							JOINT newVegas:LeftHand
							{
								OFFSET 27.849251 0.000000 0.000000
								CHANNELS 3 Xrotation Yrotation Zrotation
								JOINT newVegas:LeftHandThumb1
								{
									OFFSET 4.487587 -3.305161 6.305391
									CHANNELS 3 Xrotation Yrotation Zrotation
									JOINT newVegas:LeftHandThumb2
									{
										OFFSET 5.480453 -3.164139 3.164143
										CHANNELS 3 Xrotation Yrotation Zrotation
										JOINT newVegas:LeftHandThumb3
										{
											OFFSET 5.159721 -2.978973 2.978967
											CHANNELS 3 Xrotation Yrotation Zrotation
											End Site
											{
												OFFSET 2.494507 5.926697 1.738678
											}
										}
									}
								}
								JOINT newVegas:LeftHandIndex1
								{
									OFFSET 18.578728 -0.527832 5.208049
									CHANNELS 3 Xrotation Yrotation Zrotation
									JOINT newVegas:LeftHandIndex2
									{
										OFFSET 3.192009 0.000000 0.000000
										CHANNELS 3 Xrotation Yrotation Zrotation
										JOINT newVegas:LeftHandIndex3
										{
											OFFSET 3.835129 0.000000 0.000000
											CHANNELS 3 Xrotation Yrotation Zrotation
											End Site
											{
												OFFSET -0.034599 3.816971 0.371180
											}
										}
									}
								}
								JOINT newVegas:LeftHandMiddle1
								{
									OFFSET 18.476105 0.000000 0.000000
									CHANNELS 3 Xrotation Yrotation Zrotation
									JOINT newVegas:LeftHandMiddle2
									{
										OFFSET 3.324875 0.000000 0.000000
										CHANNELS 3 Xrotation Yrotation Zrotation
										JOINT newVegas:LeftHandMiddle3
										{
											OFFSET 4.596550 0.000000 0.000000
											CHANNELS 3 Xrotation Yrotation Zrotation
											End Site
											{
												OFFSET 0.057701 4.578827 0.399218
											}
										}
									}
								}
								JOINT newVegas:LeftHandRing1
								{
									OFFSET 17.732719 0.121887 -4.201567
									CHANNELS 3 Xrotation Yrotation Zrotation
									JOINT newVegas:LeftHandRing2
									{
										OFFSET 2.733170 0.000000 0.000000
										CHANNELS 3 Xrotation Yrotation Zrotation
										JOINT newVegas:LeftHandRing3
										{
											OFFSET 3.178268 0.000000 0.000000
											CHANNELS 3 Xrotation Yrotation Zrotation
											End Site
											{
												OFFSET 0.119102 3.170624 0.185394
											}
										}
									}
								}
								JOINT newVegas:LeftHandPinky1
								{
									OFFSET 15.989624 -0.606689 -7.535461
									CHANNELS 3 Xrotation Yrotation Zrotation
									JOINT newVegas:LeftHandPinky2
									{
										OFFSET 2.538986 0.000000 0.000000
										CHANNELS 3 Xrotation Yrotation Zrotation
										JOINT newVegas:LeftHandPinky3
										{
											OFFSET 2.593102 0.000000 0.000000
											CHANNELS 3 Xrotation Yrotation Zrotation
											End Site
											{
												OFFSET -0.150902 2.584198 0.152708
											}
										}
									}
								}
							}
							JOINT newVegas:Left_Sleeve
							{
								OFFSET 0.267448 -0.649796 0.577675
								CHANNELS 3 Xrotation Yrotation Zrotation
								End Site
								{
									OFFSET 0.000000 15.991241 0.000000
								}
							}
							JOINT newVegas:Left_CapeC
							{
								OFFSET 15.715958 -8.608795 -6.935905
								CHANNELS 3 Xrotation Yrotation Zrotation
								JOINT newVegas:Left_CapeC1
								{
									OFFSET 0.000000 -8.688499 0.000000
									CHANNELS 3 Xrotation Yrotation Zrotation
									End Site
									{
										OFFSET 0.000000 8.688499 0.000000
									}
								}
							}
						}
						JOINT newVegas:Left_CapeB
						{
							OFFSET 26.118385 -8.608795 -7.079235
							CHANNELS 3 Xrotation Yrotation Zrotation
							JOINT newVegas:Left_CapeB1
							{
								OFFSET 0.000000 -8.688499 0.000000
								CHANNELS 3 Xrotation Yrotation Zrotation
								End Site
								{
									OFFSET 0.000000 8.688499 0.000000
								}
							}
						}
						JOINT newVegas:Left_CapeA
						{
							OFFSET 5.115639 -8.608795 -10.395809
							CHANNELS 3 Xrotation Yrotation Zrotation
							JOINT newVegas:Left_CapeA1
							{
								OFFSET 0.000000 -8.688499 0.000000
								CHANNELS 3 Xrotation Yrotation Zrotation
								End Site
								{
									OFFSET 0.000000 8.688499 0.000000
								}
							}
						}
					}
				}
				JOINT newVegas:RightShoulder
				{
					OFFSET -15.263000 10.923401 -0.547700
					CHANNELS 3 Xrotation Yrotation Zrotation
					JOINT newVegas:RightArm
					{
						OFFSET -25.438599 -2.830597 -13.032500
						CHANNELS 3 Xrotation Yrotation Zrotation
						JOINT newVegas:RightForeArm
						{
							OFFSET -29.960503 0.000000 0.000000
							CHANNELS 3 Xrotation Yrotation Zrotation
							JOINT newVegas:RightHand
							{
								OFFSET -27.849251 0.000000 0.000000
								CHANNELS 3 Xrotation Yrotation Zrotation
								JOINT newVegas:RightHandThumb1
								{
									OFFSET -4.487587 -3.305161 6.305391
									CHANNELS 3 Xrotation Yrotation Zrotation
									JOINT newVegas:RightHandThumb2
									{
										OFFSET -5.480453 -3.164139 3.164143
										CHANNELS 3 Xrotation Yrotation Zrotation
										JOINT newVegas:RightHandThumb3
										{
											OFFSET -5.159721 -2.978973 2.978967
											CHANNELS 3 Xrotation Yrotation Zrotation
											End Site
											{
												OFFSET -2.494507 5.926697 1.738678
											}
										}
									}
								}
								JOINT newVegas:RightHandIndex1
								{
									OFFSET -18.578728 -0.527832 5.208049
									CHANNELS 3 Xrotation Yrotation Zrotation
									JOINT newVegas:RightHandIndex2
									{
										OFFSET -3.192009 0.000000 0.000000
										CHANNELS 3 Xrotation Yrotation Zrotation
										JOINT newVegas:RightHandIndex3
										{
											OFFSET -3.835129 0.000000 0.000000
											CHANNELS 3 Xrotation Yrotation Zrotation
											End Site
											{
												OFFSET 0.034599 3.816971 0.371180
											}
										}
									}
								}
								JOINT newVegas:RightHandMiddle1
								{
									OFFSET -18.476105 0.000000 0.000000
									CHANNELS 3 Xrotation Yrotation Zrotation
									JOINT newVegas:RightHandMiddle2
									{
										OFFSET -3.324875 0.000000 0.000000
										CHANNELS 3 Xrotation Yrotation Zrotation
										JOINT newVegas:RightHandMiddle3
										{
											OFFSET -4.596550 0.000000 0.000000
											CHANNELS 3 Xrotation Yrotation Zrotation
											End Site
											{
												OFFSET -0.057701 4.578827 0.399218
											}
										}
									}
								}
								JOINT newVegas:RightHandRing1
								{
									OFFSET -17.732719 0.121887 -4.201567
									CHANNELS 3 Xrotation Yrotation Zrotation
									JOINT newVegas:RightHandRing2
									{
										OFFSET -2.733170 0.000000 0.000000
										CHANNELS 3 Xrotation Yrotation Zrotation
										JOINT newVegas:RightHandRing3
										{
											OFFSET -3.178268 0.000000 0.000000
											CHANNELS 3 Xrotation Yrotation Zrotation
											End Site
											{
												OFFSET -0.119102 3.170624 0.185394
											}
										}
									}
								}
								JOINT newVegas:RightHandPinky1
								{
									OFFSET -15.989624 -0.606689 -7.535461
									CHANNELS 3 Xrotation Yrotation Zrotation
									JOINT newVegas:RightHandPinky2
									{
										OFFSET -2.538986 0.000000 0.000000
										CHANNELS 3 Xrotation Yrotation Zrotation
										JOINT newVegas:RightHandPinky3
										{
											OFFSET -2.593102 0.000000 0.000000
											CHANNELS 3 Xrotation Yrotation Zrotation
											End Site
											{
												OFFSET 0.150902 2.584198 0.152708
											}
										}
									}
								}
							}
							JOINT newVegas:Right_CapeC
							{
								OFFSET -15.715958 -8.608795 -6.935905
								CHANNELS 3 Xrotation Yrotation Zrotation
								JOINT newVegas:Right_CapeC1
								{
									OFFSET 0.000000 -8.688499 0.000000
									CHANNELS 3 Xrotation Yrotation Zrotation
									End Site
									{
										OFFSET 0.000000 8.688499 0.000000
									}
								}
							}
							JOINT newVegas:Right_Sleeve
							{
								OFFSET -0.267448 -0.649994 0.577675
								CHANNELS 3 Xrotation Yrotation Zrotation
								End Site
								{
									OFFSET 0.000000 15.991302 0.000000
								}
							}
						}
						JOINT newVegas:Right_CapeA
						{
							OFFSET -5.115540 -8.608795 -10.395824
							CHANNELS 3 Xrotation Yrotation Zrotation
							JOINT newVegas:Right_CapeA1
							{
								OFFSET 0.000000 -8.688499 0.000000
								CHANNELS 3 Xrotation Yrotation Zrotation
								End Site
								{
									OFFSET 0.000000 8.688499 0.000000
								}
							}
						}
						JOINT newVegas:Right_CapeB
						{
							OFFSET -26.118187 -8.608795 -7.079266
							CHANNELS 3 Xrotation Yrotation Zrotation
							JOINT newVegas:Right_CapeB1
							{
								OFFSET 0.000000 -8.688499 0.000000
								CHANNELS 3 Xrotation Yrotation Zrotation
								End Site
								{
									OFFSET 0.000000 8.688499 0.000000
								}
							}
						}
					}
				}
				JOINT newVegas:Left_Collar
				{
					OFFSET 18.625099 8.655502 8.828100
					CHANNELS 3 Xrotation Yrotation Zrotation
					JOINT newVegas:Left_Collar1
					{
						OFFSET 14.783401 10.540405 -1.259500
						CHANNELS 3 Xrotation Yrotation Zrotation
						End Site
						{
							OFFSET 0.000000 18.199875 0.000000
						}
					}
				}
				JOINT newVegas:Collar_Back
				{
					OFFSET 0.000000 15.630707 -20.132601
					CHANNELS 3 Xrotation Yrotation Zrotation
					End Site
					{
						OFFSET 0.000000 22.523010 0.000000
					}
				}
				JOINT newVegas:Left_Peck
				{
					OFFSET 17.239599 -5.132599 25.482599
					CHANNELS 3 Xrotation Yrotation Zrotation
					End Site
					{
						OFFSET 0.000000 22.523010 0.000000
					}
				}
				JOINT newVegas:Right_Peck
				{
					OFFSET -17.239599 -5.132202 25.482599
					CHANNELS 3 Xrotation Yrotation Zrotation
					End Site
					{
						OFFSET 0.000000 22.523010 0.000000
					}
				}
				JOINT newVegas:Right_Collar
				{
					OFFSET -18.625099 8.655792 8.828100
					CHANNELS 3 Xrotation Yrotation Zrotation
					JOINT newVegas:Right_Collar1
					{
						OFFSET -14.783401 10.539993 -1.259500
						CHANNELS 3 Xrotation Yrotation Zrotation
						End Site
						{
							OFFSET 0.000000 18.199631 0.000000
						}
					}
				}
			}
		}
		JOINT newVegas:Belly
		{
			OFFSET 0.000000 -6.540398 9.014299
			CHANNELS 3 Xrotation Yrotation Zrotation
			End Site
			{
				OFFSET 0.000000 11.566666 0.000000
			}
		}
	}
	JOINT newVegas:ElvisFacialAnim_Joint
	{
		OFFSET 1.000000 -95.330101 -8.825800
		CHANNELS 3 Xrotation Yrotation Zrotation
		End Site
		{
			OFFSET 0.000000 35.315800 0.000000
		}
	}
}
MOTION
Frames: 4
Frame Time: 0.033333
0.251458 79.802658 4.686818 -2.729443 -1.990807 1.091621 0.000000 0.000000 0.000000 -57.020550 2.903803 7.915659 88.795676 7.272310 0.213762 4.492305 -0.407884 8.790948 -0.000002 -0.000000 -0.000000 -0.000001 0.000000 -0.000000 -41.092091 -3.261249 -18.098466 78.214805 5.930926 -1.700778 -30.865997 -2.765614 7.946868 0.000000 0.000001 -0.000000 -0.000005 0.000000 -0.000001 40.468850 2.434395 9.311864 7.206868 -1.132266 2.334114 7.255705 -0.991023 2.150046 -2.294716 1.115785 -0.857589 -2.294687 1.115781 -0.857586 0.000002 0.000001 -0.000000 -2.294709 1.115792 -0.857596 -2.294655 1.115768 -0.857593 0.000002 0.000000 0.000002 0.000002 0.000001 -0.000001 1.645943 0.208695 -8.842182 -15.865391 -25.557426 -32.827590 0.000003 -29.865624 0.000018 -56.929435 -17.375289 -6.886962 0.626570 5.419149 2.939366 4.330100 -0.661772 -3.639588 -0.000001 0.000002 -0.000001 -11.214672 -7.851931 -13.475836 0.126565 2.748758 -20.406549 -0.000000 -0.000001 -0.000001 -0.959023 -2.230414 -0.234604 1.950778 6.449933 -53.928114 -0.000004 0.000001 0.000000 -2.626877 11.796495 17.615353 -0.019144 3.425222 -25.377894 -0.000001 -0.000000 -0.000003 3.613641 25.110943 3.251916 0.229717 3.655760 -26.762454 0.000001 -0.000003 0.000000 -0.000002 -0.000003 -0.000000 -0.000002 -0.000003 -0.000000 -0.000003 -0.000003 0.000000 -0.000003 0.000001 0.000002 -0.000002 0.000000 0.000000 -0.000003 0.000001 0.000002 -0.000004 -0.000000 0.000003 0.894769 -0.802480 7.174334 -61.822460 21.723698 54.803133 -0.000009 31.486735 0.000004 -44.481088 19.324656 14.812428 -7.743920 22.753110 -16.040373 6.934105 -44.978824 -9.137390 -0.000000 -0.000004 -0.000001 0.371974 -3.723754 -20.941326 1.864495 -5.469490 44.606224 -0.000001 0.000001 0.000001 -0.739312 -3.087180 -14.591156 2.582710 -6.730571 59.796360 0.000000 0.000001 0.000001 -0.206977 -8.038023 15.475342 -0.714929 -0.996942 6.584941 0.000002 0.000001 -0.000000 0.525338 -10.068859 29.061058 2.824783 -6.599634 55.817317 0.000002 -0.000002 -0.000004 -0.000001 0.000000 -0.000002 -0.000000 -0.000000 -0.000002 -0.000001 -0.000000 -0.000000 0.000000 0.000001 -0.000001 -0.000000 0.000001 -0.000001 0.000000 0.000001 -0.000001 -0.000000 0.000001 -0.000001 -0.000005 0.000000 0.000000 -0.000005 0.000000 0.000000 -0.000005 0.000000 0.000000 -0.000005 0.000000 0.000000 -0.000005 0.000000 0.000000 -0.000005 0.000000 0.000000 -0.000005 0.000000 0.000000 -0.000004 -0.000001 -0.000000 0.000000 0.000000 0.000000 
-0.388897 80.937111 14.041498 -1.471630 -4.391191 2.869130 0.000000 0.000000 -0.000000 -59.367752 2.802000 7.543946 81.299810 8.286104 -0.729218 -2.560304 -0.460703 4.693779 0.000000 0.000000 -0.000001 -0.000000 -0.000000 -0.000000 -34.573021 -3.498897 -20.521167 77.468702 8.111094 -2.914140 -33.425966 -3.394459 8.977590 0.000001 0.000001 -0.000000 0.000001 -0.000000 -0.000001 39.336996 4.466618 6.105584 6.584552 -0.323593 1.581346 6.625925 -0.215154 1.412784 -1.803917 0.934242 -1.156845 -1.803964 0.934249 -1.156846 -0.000002 0.000001 0.000001 -1.803986 0.934240 -1.156837 -1.803864 0.934235 -1.156841 -0.000001 0.000001 0.000001 -0.000002 0.000001 0.000001 1.880386 -1.480735 -7.697309 -9.856726 -18.983903 -34.026746 0.000002 -34.210956 0.000023 -48.992411 -15.770644 -5.237281 0.626572 5.419160 2.939372 4.330102 -0.661772 -3.639585 -0.000001 0.000000 -0.000004 -11.214675 -7.851924 -13.475833 0.126564 2.748754 -20.406551 0.000000 -0.000004 0.000000 -0.959024 -2.230407 -0.234604 1.950775 6.449932 -53.928117 0.000000 -0.000000 0.000000 -2.626879 11.796503 17.615352 -0.019142 3.425222 -25.377894 -0.000000 0.000005 -0.000001 3.613641 25.110957 3.251923 0.229718 3.655761 -26.762455 -0.000001 -0.000005 -0.000000 -0.000001 0.000001 0.000003 -0.000001 0.000001 0.000003 -0.000002 0.000001 0.000003 -0.000002 0.000000 0.000002 -0.000001 -0.000001 -0.000000 -0.000002 0.000000 0.000002 -0.000003 -0.000001 0.000002 0.847582 -0.750761 5.452021 -62.846463 25.289279 53.107753 0.000003 32.317774 -0.000029 -48.905049 20.239628 15.178384 -7.743924 22.753114 -16.040373 6.934112 -44.978834 -9.137396 0.000001 -0.000001 -0.000002 0.371973 -3.723758 -20.941326 1.864496 -5.469496 44.606224 -0.000003 -0.000001 -0.000001 -0.739312 -3.087182 -14.591150 2.582711 -6.730567 59.796366 0.000001 -0.000001 0.000001 -0.206977 -8.038025 15.475342 -0.714927 -0.996940 6.584940 0.000000 -0.000001 0.000000 0.525339 -10.068859 29.061051 2.824781 -6.599632 55.817317 0.000002 -0.000000 -0.000002 -0.000001 0.000003 -0.000001 -0.000001 -0.000003 0.000001 -0.000001 0.000003 -0.000000 0.000000 -0.000001 -0.000001 0.000000 0.000000 -0.000002 0.000000 -0.000001 -0.000001 0.000000 -0.000000 -0.000001 -0.000002 0.000000 -0.000000 -0.000002 0.000000 -0.000000 -0.000002 0.000000 -0.000000 -0.000002 0.000000 -0.000000 -0.000002 0.000000 -0.000000 -0.000002 0.000000 -0.000000 -0.000002 0.000000 -0.000000 -0.000002 0.000000 0.000000 0.000000 0.000000 -0.000000 
-0.677913 81.990356 23.435495 0.282027 -6.256192 4.464974 -0.000000 0.000000 -0.000000 -60.562488 2.230170 7.471846 71.873842 9.104401 -1.234437 -9.842798 1.417723 0.234093 -0.000000 0.000001 0.000000 0.000001 0.000001 -0.000000 -29.030288 -3.762227 -23.020191 74.868743 8.276061 -4.223429 -31.654754 -2.865762 11.434672 0.000000 0.000001 -0.000000 -0.000002 0.000002 -0.000000 37.350114 6.290562 2.771727 5.999516 0.440413 0.679569 6.037286 0.499876 0.529840 -1.320863 0.747836 -1.435196 -1.320878 0.747834 -1.435200 0.000001 0.000000 -0.000000 -1.320845 0.747831 -1.435194 -1.320865 0.747836 -1.435195 -0.000003 0.000001 -0.000000 0.000001 0.000000 0.000001 2.174780 -2.654690 -6.285817 -4.801266 -13.293932 -35.388662 0.000028 -37.929796 0.000029 -40.169838 -13.913072 -4.693652 0.626570 5.419157 2.939372 4.330102 -0.661771 -3.639588 0.000000 -0.000000 -0.000003 -11.214675 -7.851928 -13.475833 0.126562 2.748753 -20.406551 -0.000000 0.000000 -0.000001 -0.959026 -2.230412 -0.234608 1.950778 6.449933 -53.928110 0.000000 -0.000001 -0.000002 -2.626878 11.796497 17.615350 -0.019142 3.425222 -25.377887 -0.000001 0.000001 -0.000001 3.613643 25.110953 3.251923 0.229723 3.655764 -26.762454 -0.000001 -0.000005 -0.000000 0.000002 0.000000 -0.000001 0.000002 0.000000 -0.000001 0.000001 0.000000 -0.000001 -0.000003 -0.000001 -0.000002 -0.000002 -0.000002 -0.000003 -0.000003 -0.000001 -0.000002 -0.000004 -0.000002 -0.000002 0.802606 -0.818640 3.540165 -62.401127 27.417583 51.321468 -0.000005 33.628720 0.000003 -52.698847 20.626995 15.480726 -7.743925 22.753110 -16.040371 6.934101 -44.978821 -9.137387 0.000001 -0.000004 -0.000001 0.371973 -3.723758 -20.941328 1.864493 -5.469493 44.606227 -0.000000 0.000002 -0.000002 -0.739313 -3.087183 -14.591149 2.582714 -6.730568 59.796360 -0.000000 0.000001 -0.000001 -0.206977 -8.038024 15.475342 -0.714928 -0.996942 6.584941 0.000002 0.000001 -0.000002 0.525340 -10.068857 29.061055 2.824780 -6.599633 55.817313 -0.000002 -0.000000 -0.000000 -0.000003 0.000004 -0.000002 -0.000002 0.000002 0.000000 -0.000003 0.000003 -0.000002 -0.000000 -0.000001 0.000001 -0.000000 0.000000 0.000003 -0.000000 -0.000001 0.000001 -0.000000 0.000000 0.000004 0.000001 0.000000 -0.000000 0.000001 0.000000 -0.000000 0.000001 0.000000 -0.000000 0.000001 0.000000 -0.000000 0.000001 0.000000 -0.000000 0.000001 0.000000 -0.000000 0.000001 0.000000 -0.000000 -0.000001 -0.000000 -0.000001 -0.000000 0.000000 -0.000000 
-0.596348 82.697090 33.280624 2.497527 -7.264439 5.296143 -0.000000 -0.000000 -0.000000 -60.819802 1.754070 8.135623 60.355677 8.791325 -1.536983 -16.221336 5.054858 -2.011756 0.000001 -0.000001 -0.000000 -0.000000 0.000001 0.000000 -23.621875 -4.722050 -24.221775 70.236003 7.510929 -5.694956 -27.108591 -2.394292 13.343663 -0.000001 0.000001 -0.000000 -0.000001 0.000001 -0.000000 34.500699 7.938560 -0.119509 5.501146 1.164384 -0.226600 5.538520 1.172323 -0.351006 -0.951813 0.569064 -1.700283 -0.951804 0.569066 -1.700281 0.000002 -0.000000 -0.000000 -0.951813 0.569062 -1.700280 -0.951782 0.569052 -1.700278 -0.000003 -0.000001 -0.000000 0.000002 -0.000000 -0.000000 2.515428 -3.390810 -4.738175 -0.968329 -8.848540 -36.719329 0.000016 -39.917319 0.000048 -32.214864 -12.481387 -5.232367 0.626569 5.419159 2.939370 4.330102 -0.661774 -3.639587 0.000000 0.000000 -0.000004 -11.214678 -7.851921 -13.475838 0.126565 2.748754 -20.406548 -0.000002 0.000001 -0.000000 -0.959028 -2.230410 -0.234603 1.950777 6.449931 -53.928114 0.000001 0.000001 0.000002 -2.626877 11.796497 17.615348 -0.019139 3.425223 -25.377896 0.000000 0.000001 0.000000 3.613642 25.110948 3.251917 0.229719 3.655758 -26.762450 0.000000 -0.000003 0.000000 -0.000002 -0.000000 -0.000002 -0.000002 -0.000000 -0.000002 -0.000003 0.000000 -0.000002 -0.000004 -0.000001 0.000003 -0.000004 -0.000003 -0.000001 -0.000004 -0.000001 0.000003 -0.000005 -0.000002 0.000002 0.714411 -1.193873 1.800713 -59.551538 27.107274 49.648331 0.000001 35.536801 -0.000020 -55.023106 20.601486 15.583413 -7.743925 22.753110 -16.040375 6.934102 -44.978828 -9.137387 -0.000000 -0.000002 -0.000001 0.371972 -3.723757 -20.941328 1.864495 -5.469496 44.606231 0.000001 0.000000 -0.000002 -0.739314 -3.087182 -14.591150 2.582710 -6.730569 59.796353 0.000002 -0.000001 -0.000002 -0.206978 -8.038024 15.475342 -0.714932 -0.996942 6.584940 0.000001 0.000001 0.000000 0.525339 -10.068855 29.061055 2.824781 -6.599635 55.817313 0.000001 0.000001 0.000001 -0.000001 0.000001 -0.000002 -0.000001 -0.000001 0.000001 -0.000001 0.000000 -0.000002 -0.000002 -0.000003 -0.000002 -0.000002 -0.000002 -0.000001 -0.000002 -0.000003 -0.000002 -0.000002 -0.000002 0.000000 0.000001 0.000000 -0.000000 0.000001 0.000000 -0.000000 0.000001 0.000000 -0.000000 0.000001 0.000000 -0.000000 0.000001 0.000000 -0.000000 0.000001 0.000000 -0.000000 0.000001 0.000000 -0.000000 0.000000 -0.000000 -0.000001 -0.000000 -0.000000 -0.000000 
